<svg width="26" height="26" viewBox="0 0 26 26" fill="none" xmlns="http://www.w3.org/2000/svg">
<mask id="mask0_5_12167" style="mask-type:luminance" maskUnits="userSpaceOnUse" x="1" y="5" width="24" height="16">
<path fill-rule="evenodd" clip-rule="evenodd" d="M1 5.59171H25V20.1535H1V5.59171Z" fill="white"/>
</mask>
<g mask="url(#mask0_5_12167)">
<path fill-rule="evenodd" clip-rule="evenodd" d="M20.8188 10.4066C20.8172 10.3977 20.8148 10.3877 20.814 10.3787C20.2858 12.0955 18.6876 13.3433 16.7988 13.3433C16.5776 13.3433 16.3612 13.326 16.1487 13.2942V10.8046H16.7988C17.7169 10.8046 18.4607 10.0609 18.4607 9.14365C18.4607 8.22627 17.7169 7.48297 16.7988 7.48297V7.47999H16.1487H15.6425H15.1356V16.8579C15.1356 17.4442 14.7924 17.6898 14.2491 17.6898H12.5981V5.59171C11.074 6.13433 9.82248 7.25446 9.10893 8.68925C8.81452 8.61766 8.50584 8.57852 8.18919 8.57852C6.27813 8.57852 4.6932 9.96269 4.37791 11.7839C2.44922 12.1778 0.999969 13.882 0.999969 15.9255C0.999969 18.2527 2.8784 20.1389 5.20183 20.1535H20.1549V20.1533C22.8357 20.1227 25 17.9422 25 15.2551C25 12.7915 23.1842 10.7555 20.8188 10.4066Z" fill="#0078FF"/>
</g>
<path fill-rule="evenodd" clip-rule="evenodd" d="M16.5415 3.59387C16.0523 3.59387 15.7328 3.60888 15.618 3.6152L15.6084 3.61593C15.2172 3.6416 14.9201 3.98102 14.9458 4.37215C14.9702 4.74474 15.2831 5.03662 15.6584 5.03662C15.6728 5.03662 15.6871 5.03616 15.6964 5.03553L15.7057 5.03508C15.7846 5.03074 16.0776 5.01637 16.5415 5.01637C19.0138 5.01637 20.762 6.58593 20.8918 8.92202C20.9132 9.29868 21.2248 9.59372 21.6017 9.59372L21.6417 9.59282C22.0327 9.57121 22.3337 9.23532 22.3121 8.84383C22.1409 5.7527 19.768 3.59387 16.5415 3.59387Z" fill="#0078FF"/>
<path fill-rule="evenodd" clip-rule="evenodd" d="M24.8586 7.65636C24.1716 3.67506 20.8127 1 16.5006 1C16.1822 1 15.8803 1.00407 15.6028 1.01238C15.2108 1.02386 14.9012 1.35235 14.9124 1.74474C14.924 2.13134 15.2363 2.43434 15.6236 2.43434H15.6441C15.9089 2.4262 16.1969 2.42204 16.5006 2.42204C18.2728 2.42204 19.8689 2.93692 21.1159 3.91116C22.3662 4.88956 23.1756 6.26795 23.4573 7.8978C23.5166 8.2403 23.811 8.48905 24.1574 8.48905C24.1992 8.48905 24.2403 8.48535 24.2792 8.47812C24.4668 8.44558 24.6299 8.34217 24.7395 8.18669C24.8489 8.0314 24.8912 7.84302 24.8586 7.65636Z" fill="#0078FF"/>
</svg>
